<?xml version="1.0" encoding="UTF-8"?>
<svg id="Capa_1" data-name="Capa 1" xmlns="http://www.w3.org/2000/svg" viewBox="0 0 451.9 512">
  <defs>
    <style>
      .cls-1 {
        fill: #234f85;
      }
    </style>
  </defs>
  <path class="cls-1" d="M436.9,211.24c8.28,0,15-6.72,15-15v-120.72C451.9,34.03,418.18,0,376.33,0c-10.61,0-290.8,0-301.35,0C33.64,0,0,33.64,0,74.98v421.75c0,13.43,16.5,20.12,25.83,10.37l19.19-20.04,20.27,20.27c5.86,5.86,15.35,5.86,21.21,0l19.21-19.2,19.41,19.24c5.85,5.8,15.28,5.8,21.12,0l19.71-19.54,19.72,19.55c5.84,5.79,15.26,5.79,21.11,0l25.26-25c23.11,18.52,52.41,29.61,84.26,29.61,74.44,0,135-60.56,135-135,0-69.53-52.83-126.94-120.46-134.21v-31.54h106.05ZM421.9,75.53v105.72h-91.05v-105.72c0-25.1,20.42-45.53,45.52-45.53s45.52,20.42,45.52,45.53h0ZM196.25,475.62l-19.73-19.55c-5.85-5.8-15.27-5.79-21.12,0l-19.71,19.54-19.45-19.29c-5.87-5.82-15.33-5.8-21.17.04l-19.17,19.16-20.51-20.51c-6.13-6.13-15.78-5.68-21.44.23l-3.96,4.13V74.98c0-24.8,20.18-44.98,44.98-44.98h241.18c-9.6,12.67-15.31,28.44-15.31,45.53v167.37c-105.28,12.06-155.9,135.88-90,218.28l-14.6,14.45ZM421.31,377c0,57.9-47.1,105-105,105s-105-47.1-105-105,47.1-105,105-105,105,47.1,105,105Z"/>
  <path class="cls-1" d="M306.31,335.36v30.64h-30.36c-8.28,0-15,6.72-15,15s6.72,15,15,15h45.36c8.28,0,15-6.72,15-15v-45.64c0-8.28-6.72-15-15-15s-15,6.72-15,15Z"/>
  <path class="cls-1" d="M192.65,136.54c-14.35-11.18-33.08-12.92-37.26-20.47-1.48-2.67.1-7.05,3.3-9.21,4.56-3.07,14.31-1.86,17.74,1.3,6.09,5.62,15.58,5.23,21.2-.86,5.62-6.09,5.23-15.58-.86-21.2-4.66-4.3-10.57-7.36-16.96-9.15v-1.24c0-8.28-6.72-15-15-15s-15,6.72-15,15v2.24c-21.8,8.17-31.17,33.67-20.66,52.64,7.37,13.3,20.29,18.4,30.67,22.5,8.22,3.25,20.33,7.7,19.33,16.68-.48,4.28-3.72,8.53-8.06,10.57-6.19,2.91-18.65,1.11-26.13-3.78-6.93-4.53-16.23-2.59-20.76,4.34-4.54,6.93-2.59,16.23,4.34,20.76,5.83,3.81,13.28,6.89,21.27,8.6v1.91c0,8.28,6.72,15,15,15s15-6.72,15-15v-3.06c30.27-10.49,41.39-50.35,12.84-72.59h0Z"/>
  <path class="cls-1" d="M150.95,256.08h-75c-8.28,0-15,6.72-15,15s6.72,15,15,15h75c8.28,0,15-6.72,15-15s-6.72-15-15-15Z"/>
  <path class="cls-1" d="M150.95,316.18h-75.05c-8.28,0-15,6.72-15,15s6.72,15,15,15h75.05c8.28,0,15-6.72,15-15s-6.72-15-15-15Z"/>
  <path class="cls-1" d="M150.95,376.08h-75.1c-8.28,0-15,6.72-15,15s6.72,15,15,15h75.1c8.28,0,15-6.72,15-15s-6.72-15-15-15Z"/>
</svg>